<svg width="50" height="50" viewBox="0 0 29 29" version="1.1" xmlns="http://www.w3.org/2000/svg" xmlns:xlink="http://www.w3.org/1999/xlink">
<title>great-shoes</title>
<desc>Created using Figma</desc>
<g id="Canvas" transform="translate(92 -67)">
<g id="great-shoes">
<g id="Ellipse 2">
<use xlink:href="#path0_fill" transform="translate(-92 67)" fill="#093B80"/>
</g>
<g id="G">
<use xlink:href="#path1_fill" transform="translate(-90 63)" fill="#FFFFFF"/>
</g>
<g id="S">
<use xlink:href="#path2_fill" transform="translate(-83 71)" fill="#FFFFFF"/>
</g>
</g>
</g>
<defs>
<path id="path0_fill" d="M 29 14.5C 29 22.5081 22.5081 29 14.5 29C 6.49187 29 0 22.5081 0 14.5C 0 6.49187 6.49187 0 14.5 0C 22.5081 0 29 6.49187 29 14.5Z"/>
<path id="path1_fill" d="M 23.004 18.776L 23.004 19.856C 23.004 22.784 22.116 25.1 20.34 26.804C 18.564 28.508 16.056 29.36 12.816 29.36C 10.512 29.36 8.52 28.916 6.84 28.028C 5.184 27.14 3.912 25.904 3.024 24.32C 2.16 22.712 1.728 20.876 1.728 18.812C 1.728 16.748 2.196 14.924 3.132 13.34C 4.068 11.756 5.364 10.532 7.02 9.668C 8.7 8.804 10.608 8.372 12.744 8.372C 14.256 8.372 15.6 8.624 16.776 9.128C 17.952 9.632 18.924 10.352 19.692 11.288L 19.692 8.732L 22.032 8.732L 22.032 14.996L 19.944 14.996C 19.296 13.556 18.36 12.452 17.136 11.684C 15.912 10.892 14.484 10.496 12.852 10.496C 10.404 10.496 8.46 11.228 7.02 12.692C 5.604 14.156 4.896 16.136 4.896 18.632C 4.896 21.272 5.616 23.36 7.056 24.896C 8.496 26.432 10.452 27.2 12.924 27.2C 15.036 27.152 16.752 26.6 18.072 25.544C 19.392 24.488 20.076 22.904 20.124 20.792L 15.84 20.792L 15.84 18.776L 23.004 18.776Z"/>
<path id="path2_fill" d="M 7.70801 13.7041C 7.83691 12.7666 7.35059 12.0811 6.24902 11.6475L 4.72852 11.0938L 4.21875 10.874C 2.50781 10.0947 1.70801 8.99902 1.81934 7.58691C 1.87793 6.87793 2.12109 6.25098 2.54883 5.70605C 2.97656 5.16113 3.54199 4.74219 4.24512 4.44922C 4.9541 4.15039 5.70703 4.00977 6.50391 4.02734C 7.27734 4.04492 7.96582 4.21777 8.56934 4.5459C 9.17871 4.87402 9.6416 5.33398 9.95801 5.92578C 10.2744 6.51172 10.415 7.17383 10.3799 7.91211L 8.71875 7.90332C 8.77734 7.11816 8.60156 6.51172 8.19141 6.08398C 7.78125 5.65039 7.19531 5.42773 6.43359 5.41602C 5.63086 5.4043 4.95996 5.5918 4.4209 5.97852C 3.88184 6.36523 3.57129 6.89258 3.48926 7.56055C 3.37207 8.43359 3.9082 9.0957 5.09766 9.54688L 6.40723 10.0127L 7.06641 10.2939C 8.71875 11.0557 9.4834 12.1865 9.36035 13.6865C 9.2959 14.4072 9.05273 15.0312 8.63086 15.5586C 8.20898 16.0801 7.63477 16.4844 6.9082 16.7715C 6.1875 17.0586 5.41113 17.1934 4.5791 17.1758C 3.77637 17.1699 3.04102 17 2.37305 16.666C 1.71094 16.3262 1.20703 15.8633 0.861328 15.2773C 0.515625 14.6914 0.363281 14.0264 0.404297 13.2822L 2.05664 13.291C 2.00391 14.0527 2.20898 14.6592 2.67188 15.1104C 3.14063 15.5557 3.7998 15.7842 4.64941 15.7959C 5.49902 15.8076 6.19922 15.623 6.75 15.2422C 7.30078 14.8613 7.62012 14.3486 7.70801 13.7041Z"/>
</defs>
</svg>
